<mxfile host="Electron" agent="Mozilla/5.0 (Windows NT 10.0; Win64; x64) AppleWebKit/537.36 (KHTML, like Gecko) draw.io/24.7.17 Chrome/128.0.6613.36 Electron/32.0.1 Safari/537.36" version="24.7.17">
  <diagram id="C5RBs43oDa-KdzZeNtuy" name="Page-1">
    <mxGraphModel dx="3723" dy="1496" grid="1" gridSize="10" guides="1" tooltips="1" connect="1" arrows="1" fold="1" page="1" pageScale="1" pageWidth="827" pageHeight="1169" math="0" shadow="0">
      <root>
        <mxCell id="WIyWlLk6GJQsqaUBKTNV-0" />
        <mxCell id="WIyWlLk6GJQsqaUBKTNV-1" parent="WIyWlLk6GJQsqaUBKTNV-0" />
        <mxCell id="tXaySMaBJVbL5Y9LoDkF-0" value="&lt;div&gt;&amp;lt;&amp;lt;Singleton&amp;gt;&amp;gt;&lt;/div&gt;CityController" style="swimlane;fontStyle=1;align=center;verticalAlign=top;childLayout=stackLayout;horizontal=1;startSize=50;horizontalStack=0;resizeParent=1;resizeParentMax=0;resizeLast=0;collapsible=1;marginBottom=0;whiteSpace=wrap;html=1;" vertex="1" parent="WIyWlLk6GJQsqaUBKTNV-1">
          <mxGeometry x="80" y="50" width="230" height="144" as="geometry" />
        </mxCell>
        <mxCell id="tXaySMaBJVbL5Y9LoDkF-1" value="- instance : CityController" style="text;strokeColor=none;fillColor=none;align=left;verticalAlign=top;spacingLeft=4;spacingRight=4;overflow=hidden;rotatable=0;points=[[0,0.5],[1,0.5]];portConstraint=eastwest;whiteSpace=wrap;html=1;" vertex="1" parent="tXaySMaBJVbL5Y9LoDkF-0">
          <mxGeometry y="50" width="230" height="26" as="geometry" />
        </mxCell>
        <mxCell id="tXaySMaBJVbL5Y9LoDkF-2" value="" style="line;strokeWidth=1;fillColor=none;align=left;verticalAlign=middle;spacingTop=-1;spacingLeft=3;spacingRight=3;rotatable=0;labelPosition=right;points=[];portConstraint=eastwest;strokeColor=inherit;" vertex="1" parent="tXaySMaBJVbL5Y9LoDkF-0">
          <mxGeometry y="76" width="230" height="8" as="geometry" />
        </mxCell>
        <mxCell id="tXaySMaBJVbL5Y9LoDkF-88" style="edgeStyle=orthogonalEdgeStyle;rounded=0;orthogonalLoop=1;jettySize=auto;html=1;exitX=1;exitY=0.5;exitDx=0;exitDy=0;" edge="1" parent="tXaySMaBJVbL5Y9LoDkF-0" source="tXaySMaBJVbL5Y9LoDkF-3">
          <mxGeometry relative="1" as="geometry">
            <mxPoint x="230" y="10" as="targetPoint" />
            <Array as="points">
              <mxPoint x="270" y="90" />
              <mxPoint x="270" y="10" />
            </Array>
          </mxGeometry>
        </mxCell>
        <mxCell id="tXaySMaBJVbL5Y9LoDkF-3" value="&lt;div&gt;+ getInstance(): CityController&lt;br&gt;&lt;/div&gt;&lt;span class=&quot;hljs-operator&quot;&gt;+&lt;/span&gt; controlStreetLights()&amp;nbsp;" style="text;strokeColor=none;fillColor=none;align=left;verticalAlign=top;spacingLeft=4;spacingRight=4;overflow=hidden;rotatable=0;points=[[0,0.5],[1,0.5]];portConstraint=eastwest;whiteSpace=wrap;html=1;" vertex="1" parent="tXaySMaBJVbL5Y9LoDkF-0">
          <mxGeometry y="84" width="230" height="60" as="geometry" />
        </mxCell>
        <mxCell id="tXaySMaBJVbL5Y9LoDkF-36" value="&amp;nbsp;PaymentSystem" style="swimlane;fontStyle=0;childLayout=stackLayout;horizontal=1;startSize=26;fillColor=none;horizontalStack=0;resizeParent=1;resizeParentMax=0;resizeLast=0;collapsible=1;marginBottom=0;whiteSpace=wrap;html=1;" vertex="1" parent="WIyWlLk6GJQsqaUBKTNV-1">
          <mxGeometry x="-220" y="900" width="220" height="80" as="geometry" />
        </mxCell>
        <mxCell id="tXaySMaBJVbL5Y9LoDkF-37" value="+processPayment(amount: Double)" style="text;strokeColor=none;fillColor=none;align=left;verticalAlign=top;spacingLeft=4;spacingRight=4;overflow=hidden;rotatable=0;points=[[0,0.5],[1,0.5]];portConstraint=eastwest;whiteSpace=wrap;html=1;" vertex="1" parent="tXaySMaBJVbL5Y9LoDkF-36">
          <mxGeometry y="26" width="220" height="54" as="geometry" />
        </mxCell>
        <mxCell id="tXaySMaBJVbL5Y9LoDkF-41" value="CryptoPayment&amp;nbsp;" style="swimlane;fontStyle=0;childLayout=stackLayout;horizontal=1;startSize=26;fillColor=none;horizontalStack=0;resizeParent=1;resizeParentMax=0;resizeLast=0;collapsible=1;marginBottom=0;whiteSpace=wrap;html=1;" vertex="1" parent="WIyWlLk6GJQsqaUBKTNV-1">
          <mxGeometry x="30" y="900" width="250" height="80" as="geometry" />
        </mxCell>
        <mxCell id="tXaySMaBJVbL5Y9LoDkF-42" value="+makeCryptoPayment(amount: Double)" style="text;strokeColor=none;fillColor=none;align=left;verticalAlign=top;spacingLeft=4;spacingRight=4;overflow=hidden;rotatable=0;points=[[0,0.5],[1,0.5]];portConstraint=eastwest;whiteSpace=wrap;html=1;" vertex="1" parent="tXaySMaBJVbL5Y9LoDkF-41">
          <mxGeometry y="26" width="250" height="54" as="geometry" />
        </mxCell>
        <mxCell id="tXaySMaBJVbL5Y9LoDkF-43" value="&amp;nbsp;DailyRoutine&amp;nbsp;&amp;nbsp;" style="swimlane;fontStyle=0;childLayout=stackLayout;horizontal=1;startSize=26;fillColor=none;horizontalStack=0;resizeParent=1;resizeParentMax=0;resizeLast=0;collapsible=1;marginBottom=0;whiteSpace=wrap;html=1;" vertex="1" parent="WIyWlLk6GJQsqaUBKTNV-1">
          <mxGeometry x="950" y="280" width="220" height="108" as="geometry" />
        </mxCell>
        <mxCell id="tXaySMaBJVbL5Y9LoDkF-44" value="+ executeRoutine()&amp;nbsp;" style="text;strokeColor=none;fillColor=none;align=left;verticalAlign=top;spacingLeft=4;spacingRight=4;overflow=hidden;rotatable=0;points=[[0,0.5],[1,0.5]];portConstraint=eastwest;whiteSpace=wrap;html=1;" vertex="1" parent="tXaySMaBJVbL5Y9LoDkF-43">
          <mxGeometry y="26" width="220" height="24" as="geometry" />
        </mxCell>
        <mxCell id="tXaySMaBJVbL5Y9LoDkF-45" value="&lt;div&gt;+ turnOnLights()&amp;nbsp;&lt;br&gt;&lt;/div&gt;&lt;div&gt;+ checkPublicSafety()&lt;br&gt;&lt;/div&gt;&lt;div&gt;&amp;nbsp;+ manageUtilities()&lt;br&gt;&lt;/div&gt;" style="text;strokeColor=none;fillColor=none;align=left;verticalAlign=top;spacingLeft=4;spacingRight=4;overflow=hidden;rotatable=0;points=[[0,0.5],[1,0.5]];portConstraint=eastwest;whiteSpace=wrap;html=1;" vertex="1" parent="tXaySMaBJVbL5Y9LoDkF-43">
          <mxGeometry y="50" width="220" height="58" as="geometry" />
        </mxCell>
        <mxCell id="tXaySMaBJVbL5Y9LoDkF-46" value="CityRoutine&amp;nbsp;&amp;nbsp;" style="swimlane;fontStyle=0;childLayout=stackLayout;horizontal=1;startSize=26;fillColor=none;horizontalStack=0;resizeParent=1;resizeParentMax=0;resizeLast=0;collapsible=1;marginBottom=0;whiteSpace=wrap;html=1;" vertex="1" parent="WIyWlLk6GJQsqaUBKTNV-1">
          <mxGeometry x="960" y="478" width="220" height="108" as="geometry" />
        </mxCell>
        <mxCell id="tXaySMaBJVbL5Y9LoDkF-47" value="&amp;nbsp;+ turnOnLights()" style="text;strokeColor=none;fillColor=none;align=left;verticalAlign=top;spacingLeft=4;spacingRight=4;overflow=hidden;rotatable=0;points=[[0,0.5],[1,0.5]];portConstraint=eastwest;whiteSpace=wrap;html=1;" vertex="1" parent="tXaySMaBJVbL5Y9LoDkF-46">
          <mxGeometry y="26" width="220" height="24" as="geometry" />
        </mxCell>
        <mxCell id="tXaySMaBJVbL5Y9LoDkF-48" value="&lt;div&gt;+ checkPublicSafety()&amp;nbsp;&lt;br&gt;&lt;/div&gt;&lt;div&gt;+ manageUtilities()&lt;br&gt;&lt;/div&gt;" style="text;strokeColor=none;fillColor=none;align=left;verticalAlign=top;spacingLeft=4;spacingRight=4;overflow=hidden;rotatable=0;points=[[0,0.5],[1,0.5]];portConstraint=eastwest;whiteSpace=wrap;html=1;" vertex="1" parent="tXaySMaBJVbL5Y9LoDkF-46">
          <mxGeometry y="50" width="220" height="58" as="geometry" />
        </mxCell>
        <mxCell id="tXaySMaBJVbL5Y9LoDkF-49" value="&lt;span style=&quot;font-weight: 400;&quot;&gt;&amp;nbsp;TurnOnStreetLightsCommand&amp;nbsp;&lt;/span&gt;" style="swimlane;fontStyle=1;align=center;verticalAlign=top;childLayout=stackLayout;horizontal=1;startSize=26;horizontalStack=0;resizeParent=1;resizeParentMax=0;resizeLast=0;collapsible=1;marginBottom=0;whiteSpace=wrap;html=1;" vertex="1" parent="WIyWlLk6GJQsqaUBKTNV-1">
          <mxGeometry x="-690" y="638" width="190" height="90" as="geometry" />
        </mxCell>
        <mxCell id="tXaySMaBJVbL5Y9LoDkF-50" value="- cityController: CityController" style="text;strokeColor=none;fillColor=none;align=left;verticalAlign=top;spacingLeft=4;spacingRight=4;overflow=hidden;rotatable=0;points=[[0,0.5],[1,0.5]];portConstraint=eastwest;whiteSpace=wrap;html=1;" vertex="1" parent="tXaySMaBJVbL5Y9LoDkF-49">
          <mxGeometry y="26" width="190" height="26" as="geometry" />
        </mxCell>
        <mxCell id="tXaySMaBJVbL5Y9LoDkF-51" value="" style="line;strokeWidth=1;fillColor=none;align=left;verticalAlign=middle;spacingTop=-1;spacingLeft=3;spacingRight=3;rotatable=0;labelPosition=right;points=[];portConstraint=eastwest;strokeColor=inherit;" vertex="1" parent="tXaySMaBJVbL5Y9LoDkF-49">
          <mxGeometry y="52" width="190" height="8" as="geometry" />
        </mxCell>
        <mxCell id="tXaySMaBJVbL5Y9LoDkF-52" value="+ execute()&amp;nbsp;" style="text;strokeColor=none;fillColor=none;align=left;verticalAlign=top;spacingLeft=4;spacingRight=4;overflow=hidden;rotatable=0;points=[[0,0.5],[1,0.5]];portConstraint=eastwest;whiteSpace=wrap;html=1;" vertex="1" parent="tXaySMaBJVbL5Y9LoDkF-49">
          <mxGeometry y="60" width="190" height="30" as="geometry" />
        </mxCell>
        <mxCell id="tXaySMaBJVbL5Y9LoDkF-53" value="&lt;span style=&quot;font-weight: 400;&quot;&gt;TurnOffStreetLightsCommand&lt;/span&gt;" style="swimlane;fontStyle=1;align=center;verticalAlign=top;childLayout=stackLayout;horizontal=1;startSize=26;horizontalStack=0;resizeParent=1;resizeParentMax=0;resizeLast=0;collapsible=1;marginBottom=0;whiteSpace=wrap;html=1;" vertex="1" parent="WIyWlLk6GJQsqaUBKTNV-1">
          <mxGeometry x="-470" y="638" width="190" height="90" as="geometry" />
        </mxCell>
        <mxCell id="tXaySMaBJVbL5Y9LoDkF-54" value="- cityController: CityController" style="text;strokeColor=none;fillColor=none;align=left;verticalAlign=top;spacingLeft=4;spacingRight=4;overflow=hidden;rotatable=0;points=[[0,0.5],[1,0.5]];portConstraint=eastwest;whiteSpace=wrap;html=1;" vertex="1" parent="tXaySMaBJVbL5Y9LoDkF-53">
          <mxGeometry y="26" width="190" height="26" as="geometry" />
        </mxCell>
        <mxCell id="tXaySMaBJVbL5Y9LoDkF-55" value="" style="line;strokeWidth=1;fillColor=none;align=left;verticalAlign=middle;spacingTop=-1;spacingLeft=3;spacingRight=3;rotatable=0;labelPosition=right;points=[];portConstraint=eastwest;strokeColor=inherit;" vertex="1" parent="tXaySMaBJVbL5Y9LoDkF-53">
          <mxGeometry y="52" width="190" height="8" as="geometry" />
        </mxCell>
        <mxCell id="tXaySMaBJVbL5Y9LoDkF-56" value="+ execute()&amp;nbsp;" style="text;strokeColor=none;fillColor=none;align=left;verticalAlign=top;spacingLeft=4;spacingRight=4;overflow=hidden;rotatable=0;points=[[0,0.5],[1,0.5]];portConstraint=eastwest;whiteSpace=wrap;html=1;" vertex="1" parent="tXaySMaBJVbL5Y9LoDkF-53">
          <mxGeometry y="60" width="190" height="30" as="geometry" />
        </mxCell>
        <mxCell id="tXaySMaBJVbL5Y9LoDkF-57" value="&lt;span style=&quot;font-weight: 400;&quot;&gt;RemoteControl&amp;nbsp;&lt;/span&gt;" style="swimlane;fontStyle=1;align=center;verticalAlign=top;childLayout=stackLayout;horizontal=1;startSize=26;horizontalStack=0;resizeParent=1;resizeParentMax=0;resizeLast=0;collapsible=1;marginBottom=0;whiteSpace=wrap;html=1;" vertex="1" parent="WIyWlLk6GJQsqaUBKTNV-1">
          <mxGeometry x="-590" y="248" width="240" height="120" as="geometry" />
        </mxCell>
        <mxCell id="tXaySMaBJVbL5Y9LoDkF-58" value="- command: Command&amp;nbsp;" style="text;strokeColor=none;fillColor=none;align=left;verticalAlign=top;spacingLeft=4;spacingRight=4;overflow=hidden;rotatable=0;points=[[0,0.5],[1,0.5]];portConstraint=eastwest;whiteSpace=wrap;html=1;" vertex="1" parent="tXaySMaBJVbL5Y9LoDkF-57">
          <mxGeometry y="26" width="240" height="26" as="geometry" />
        </mxCell>
        <mxCell id="tXaySMaBJVbL5Y9LoDkF-59" value="" style="line;strokeWidth=1;fillColor=none;align=left;verticalAlign=middle;spacingTop=-1;spacingLeft=3;spacingRight=3;rotatable=0;labelPosition=right;points=[];portConstraint=eastwest;strokeColor=inherit;" vertex="1" parent="tXaySMaBJVbL5Y9LoDkF-57">
          <mxGeometry y="52" width="240" height="8" as="geometry" />
        </mxCell>
        <mxCell id="tXaySMaBJVbL5Y9LoDkF-60" value="+ setCommand(command: Command)&lt;div&gt;+ pressButton()&lt;/div&gt;" style="text;strokeColor=none;fillColor=none;align=left;verticalAlign=top;spacingLeft=4;spacingRight=4;overflow=hidden;rotatable=0;points=[[0,0.5],[1,0.5]];portConstraint=eastwest;whiteSpace=wrap;html=1;" vertex="1" parent="tXaySMaBJVbL5Y9LoDkF-57">
          <mxGeometry y="60" width="240" height="60" as="geometry" />
        </mxCell>
        <mxCell id="tXaySMaBJVbL5Y9LoDkF-61" value="&lt;span style=&quot;font-weight: 400;&quot;&gt;Command&amp;nbsp;&lt;/span&gt;" style="swimlane;fontStyle=1;align=center;verticalAlign=top;childLayout=stackLayout;horizontal=1;startSize=26;horizontalStack=0;resizeParent=1;resizeParentMax=0;resizeLast=0;collapsible=1;marginBottom=0;whiteSpace=wrap;html=1;" vertex="1" parent="WIyWlLk6GJQsqaUBKTNV-1">
          <mxGeometry x="-550" y="488" width="160" height="60" as="geometry" />
        </mxCell>
        <mxCell id="tXaySMaBJVbL5Y9LoDkF-63" value="" style="line;strokeWidth=1;fillColor=none;align=left;verticalAlign=middle;spacingTop=-1;spacingLeft=3;spacingRight=3;rotatable=0;labelPosition=right;points=[];portConstraint=eastwest;strokeColor=inherit;" vertex="1" parent="tXaySMaBJVbL5Y9LoDkF-61">
          <mxGeometry y="26" width="160" height="8" as="geometry" />
        </mxCell>
        <mxCell id="tXaySMaBJVbL5Y9LoDkF-64" value="+ execute()&amp;nbsp;" style="text;strokeColor=none;fillColor=none;align=left;verticalAlign=top;spacingLeft=4;spacingRight=4;overflow=hidden;rotatable=0;points=[[0,0.5],[1,0.5]];portConstraint=eastwest;whiteSpace=wrap;html=1;" vertex="1" parent="tXaySMaBJVbL5Y9LoDkF-61">
          <mxGeometry y="34" width="160" height="26" as="geometry" />
        </mxCell>
        <mxCell id="tXaySMaBJVbL5Y9LoDkF-65" value="&lt;div&gt;&lt;span style=&quot;font-weight: 400;&quot;&gt;&amp;lt;&amp;lt;interface&amp;gt;&amp;gt;&lt;/span&gt;&lt;/div&gt;&lt;span style=&quot;font-weight: 400;&quot;&gt;Observer&amp;nbsp;&amp;nbsp;&lt;/span&gt;" style="swimlane;fontStyle=1;align=center;verticalAlign=top;childLayout=stackLayout;horizontal=1;startSize=40;horizontalStack=0;resizeParent=1;resizeParentMax=0;resizeLast=0;collapsible=1;marginBottom=0;whiteSpace=wrap;html=1;" vertex="1" parent="WIyWlLk6GJQsqaUBKTNV-1">
          <mxGeometry x="530" y="510" width="160" height="74" as="geometry" />
        </mxCell>
        <mxCell id="tXaySMaBJVbL5Y9LoDkF-66" value="" style="line;strokeWidth=1;fillColor=none;align=left;verticalAlign=middle;spacingTop=-1;spacingLeft=3;spacingRight=3;rotatable=0;labelPosition=right;points=[];portConstraint=eastwest;strokeColor=inherit;" vertex="1" parent="tXaySMaBJVbL5Y9LoDkF-65">
          <mxGeometry y="40" width="160" height="8" as="geometry" />
        </mxCell>
        <mxCell id="tXaySMaBJVbL5Y9LoDkF-67" value="+ update(message: String)" style="text;strokeColor=none;fillColor=none;align=left;verticalAlign=top;spacingLeft=4;spacingRight=4;overflow=hidden;rotatable=0;points=[[0,0.5],[1,0.5]];portConstraint=eastwest;whiteSpace=wrap;html=1;" vertex="1" parent="tXaySMaBJVbL5Y9LoDkF-65">
          <mxGeometry y="48" width="160" height="26" as="geometry" />
        </mxCell>
        <mxCell id="tXaySMaBJVbL5Y9LoDkF-68" value="&lt;span style=&quot;font-weight: 400;&quot;&gt;Resident&amp;nbsp;&lt;/span&gt;" style="swimlane;fontStyle=1;align=center;verticalAlign=top;childLayout=stackLayout;horizontal=1;startSize=26;horizontalStack=0;resizeParent=1;resizeParentMax=0;resizeLast=0;collapsible=1;marginBottom=0;whiteSpace=wrap;html=1;" vertex="1" parent="WIyWlLk6GJQsqaUBKTNV-1">
          <mxGeometry x="610" y="682" width="160" height="86" as="geometry" />
        </mxCell>
        <mxCell id="tXaySMaBJVbL5Y9LoDkF-69" value="- name: String&amp;nbsp;&lt;div&gt;&lt;br&gt;&lt;/div&gt;" style="text;strokeColor=none;fillColor=none;align=left;verticalAlign=top;spacingLeft=4;spacingRight=4;overflow=hidden;rotatable=0;points=[[0,0.5],[1,0.5]];portConstraint=eastwest;whiteSpace=wrap;html=1;" vertex="1" parent="tXaySMaBJVbL5Y9LoDkF-68">
          <mxGeometry y="26" width="160" height="26" as="geometry" />
        </mxCell>
        <mxCell id="tXaySMaBJVbL5Y9LoDkF-70" value="" style="line;strokeWidth=1;fillColor=none;align=left;verticalAlign=middle;spacingTop=-1;spacingLeft=3;spacingRight=3;rotatable=0;labelPosition=right;points=[];portConstraint=eastwest;strokeColor=inherit;" vertex="1" parent="tXaySMaBJVbL5Y9LoDkF-68">
          <mxGeometry y="52" width="160" height="8" as="geometry" />
        </mxCell>
        <mxCell id="tXaySMaBJVbL5Y9LoDkF-71" value="+ update(message: String)" style="text;strokeColor=none;fillColor=none;align=left;verticalAlign=top;spacingLeft=4;spacingRight=4;overflow=hidden;rotatable=0;points=[[0,0.5],[1,0.5]];portConstraint=eastwest;whiteSpace=wrap;html=1;" vertex="1" parent="tXaySMaBJVbL5Y9LoDkF-68">
          <mxGeometry y="60" width="160" height="26" as="geometry" />
        </mxCell>
        <mxCell id="tXaySMaBJVbL5Y9LoDkF-72" value="&lt;span style=&quot;font-weight: 400;&quot;&gt;Authority&amp;nbsp;&amp;nbsp;&lt;/span&gt;" style="swimlane;fontStyle=1;align=center;verticalAlign=top;childLayout=stackLayout;horizontal=1;startSize=26;horizontalStack=0;resizeParent=1;resizeParentMax=0;resizeLast=0;collapsible=1;marginBottom=0;whiteSpace=wrap;html=1;" vertex="1" parent="WIyWlLk6GJQsqaUBKTNV-1">
          <mxGeometry x="430" y="682" width="160" height="86" as="geometry" />
        </mxCell>
        <mxCell id="tXaySMaBJVbL5Y9LoDkF-73" value="&lt;div&gt;&lt;div&gt;- department: String&lt;br&gt;&lt;/div&gt;&lt;/div&gt;&lt;div&gt;&lt;br&gt;&lt;/div&gt;" style="text;strokeColor=none;fillColor=none;align=left;verticalAlign=top;spacingLeft=4;spacingRight=4;overflow=hidden;rotatable=0;points=[[0,0.5],[1,0.5]];portConstraint=eastwest;whiteSpace=wrap;html=1;" vertex="1" parent="tXaySMaBJVbL5Y9LoDkF-72">
          <mxGeometry y="26" width="160" height="26" as="geometry" />
        </mxCell>
        <mxCell id="tXaySMaBJVbL5Y9LoDkF-74" value="" style="line;strokeWidth=1;fillColor=none;align=left;verticalAlign=middle;spacingTop=-1;spacingLeft=3;spacingRight=3;rotatable=0;labelPosition=right;points=[];portConstraint=eastwest;strokeColor=inherit;" vertex="1" parent="tXaySMaBJVbL5Y9LoDkF-72">
          <mxGeometry y="52" width="160" height="8" as="geometry" />
        </mxCell>
        <mxCell id="tXaySMaBJVbL5Y9LoDkF-75" value="+ update(message: String)" style="text;strokeColor=none;fillColor=none;align=left;verticalAlign=top;spacingLeft=4;spacingRight=4;overflow=hidden;rotatable=0;points=[[0,0.5],[1,0.5]];portConstraint=eastwest;whiteSpace=wrap;html=1;" vertex="1" parent="tXaySMaBJVbL5Y9LoDkF-72">
          <mxGeometry y="60" width="160" height="26" as="geometry" />
        </mxCell>
        <mxCell id="tXaySMaBJVbL5Y9LoDkF-76" value="&lt;span style=&quot;font-weight: 400;&quot;&gt;&amp;nbsp;CityMonitor&amp;nbsp;&lt;/span&gt;" style="swimlane;fontStyle=1;align=center;verticalAlign=top;childLayout=stackLayout;horizontal=1;startSize=26;horizontalStack=0;resizeParent=1;resizeParentMax=0;resizeLast=0;collapsible=1;marginBottom=0;whiteSpace=wrap;html=1;" vertex="1" parent="WIyWlLk6GJQsqaUBKTNV-1">
          <mxGeometry x="440" y="260" width="330" height="160" as="geometry" />
        </mxCell>
        <mxCell id="tXaySMaBJVbL5Y9LoDkF-77" value="- observers: List&amp;lt;Observer&amp;gt;" style="text;strokeColor=none;fillColor=none;align=left;verticalAlign=top;spacingLeft=4;spacingRight=4;overflow=hidden;rotatable=0;points=[[0,0.5],[1,0.5]];portConstraint=eastwest;whiteSpace=wrap;html=1;" vertex="1" parent="tXaySMaBJVbL5Y9LoDkF-76">
          <mxGeometry y="26" width="330" height="26" as="geometry" />
        </mxCell>
        <mxCell id="tXaySMaBJVbL5Y9LoDkF-78" value="" style="line;strokeWidth=1;fillColor=none;align=left;verticalAlign=middle;spacingTop=-1;spacingLeft=3;spacingRight=3;rotatable=0;labelPosition=right;points=[];portConstraint=eastwest;strokeColor=inherit;" vertex="1" parent="tXaySMaBJVbL5Y9LoDkF-76">
          <mxGeometry y="52" width="330" height="8" as="geometry" />
        </mxCell>
        <mxCell id="tXaySMaBJVbL5Y9LoDkF-79" value="&lt;div&gt;&lt;span style=&quot;background-color: initial;&quot;&gt;+ addObserver(observer: Observer)&lt;/span&gt;&lt;/div&gt;&lt;div&gt;&lt;span style=&quot;background-color: initial;&quot;&gt;+&amp;nbsp;&lt;/span&gt;&lt;span style=&quot;background-color: initial;&quot;&gt;removeObserver(observer: Observer)&lt;/span&gt;&lt;br&gt;&lt;/div&gt;&lt;div&gt;+ notifyObservers(message: String)&lt;/div&gt;" style="text;strokeColor=none;fillColor=none;align=left;verticalAlign=top;spacingLeft=4;spacingRight=4;overflow=hidden;rotatable=0;points=[[0,0.5],[1,0.5]];portConstraint=eastwest;whiteSpace=wrap;html=1;" vertex="1" parent="tXaySMaBJVbL5Y9LoDkF-76">
          <mxGeometry y="60" width="330" height="100" as="geometry" />
        </mxCell>
        <mxCell id="tXaySMaBJVbL5Y9LoDkF-80" value="&lt;span style=&quot;font-weight: 400;&quot;&gt;CryptoPaymentAdapter&lt;/span&gt;" style="swimlane;fontStyle=1;align=center;verticalAlign=top;childLayout=stackLayout;horizontal=1;startSize=26;horizontalStack=0;resizeParent=1;resizeParentMax=0;resizeLast=0;collapsible=1;marginBottom=0;whiteSpace=wrap;html=1;" vertex="1" parent="WIyWlLk6GJQsqaUBKTNV-1">
          <mxGeometry x="-100" y="690" width="230" height="120" as="geometry" />
        </mxCell>
        <mxCell id="tXaySMaBJVbL5Y9LoDkF-81" value="- cryptoPayment: CryptoPayment" style="text;strokeColor=none;fillColor=none;align=left;verticalAlign=top;spacingLeft=4;spacingRight=4;overflow=hidden;rotatable=0;points=[[0,0.5],[1,0.5]];portConstraint=eastwest;whiteSpace=wrap;html=1;" vertex="1" parent="tXaySMaBJVbL5Y9LoDkF-80">
          <mxGeometry y="26" width="230" height="26" as="geometry" />
        </mxCell>
        <mxCell id="tXaySMaBJVbL5Y9LoDkF-82" value="" style="line;strokeWidth=1;fillColor=none;align=left;verticalAlign=middle;spacingTop=-1;spacingLeft=3;spacingRight=3;rotatable=0;labelPosition=right;points=[];portConstraint=eastwest;strokeColor=inherit;" vertex="1" parent="tXaySMaBJVbL5Y9LoDkF-80">
          <mxGeometry y="52" width="230" height="8" as="geometry" />
        </mxCell>
        <mxCell id="tXaySMaBJVbL5Y9LoDkF-83" value="+ processPayment(amount)" style="text;strokeColor=none;fillColor=none;align=left;verticalAlign=top;spacingLeft=4;spacingRight=4;overflow=hidden;rotatable=0;points=[[0,0.5],[1,0.5]];portConstraint=eastwest;whiteSpace=wrap;html=1;" vertex="1" parent="tXaySMaBJVbL5Y9LoDkF-80">
          <mxGeometry y="60" width="230" height="60" as="geometry" />
        </mxCell>
        <mxCell id="tXaySMaBJVbL5Y9LoDkF-109" style="edgeStyle=orthogonalEdgeStyle;rounded=0;orthogonalLoop=1;jettySize=auto;html=1;entryX=0.5;entryY=0;entryDx=0;entryDy=0;exitX=0.532;exitY=1.001;exitDx=0;exitDy=0;exitPerimeter=0;" edge="1" parent="WIyWlLk6GJQsqaUBKTNV-1" source="tXaySMaBJVbL5Y9LoDkF-79" target="tXaySMaBJVbL5Y9LoDkF-65">
          <mxGeometry relative="1" as="geometry">
            <Array as="points">
              <mxPoint x="610" y="420" />
            </Array>
          </mxGeometry>
        </mxCell>
        <mxCell id="tXaySMaBJVbL5Y9LoDkF-119" value="1" style="edgeLabel;html=1;align=center;verticalAlign=middle;resizable=0;points=[];" vertex="1" connectable="0" parent="tXaySMaBJVbL5Y9LoDkF-109">
          <mxGeometry x="-0.8179" relative="1" as="geometry">
            <mxPoint x="10" y="5" as="offset" />
          </mxGeometry>
        </mxCell>
        <mxCell id="tXaySMaBJVbL5Y9LoDkF-120" value="*" style="text;html=1;align=center;verticalAlign=middle;resizable=0;points=[];autosize=1;strokeColor=none;fillColor=none;" vertex="1" parent="WIyWlLk6GJQsqaUBKTNV-1">
          <mxGeometry x="610" y="480" width="30" height="30" as="geometry" />
        </mxCell>
        <mxCell id="tXaySMaBJVbL5Y9LoDkF-121" value="" style="html=1;whiteSpace=wrap;fillColor=none;" vertex="1" parent="WIyWlLk6GJQsqaUBKTNV-1">
          <mxGeometry x="-720" y="458" width="480" height="310" as="geometry" />
        </mxCell>
        <mxCell id="tXaySMaBJVbL5Y9LoDkF-123" value="" style="endArrow=classic;html=1;rounded=0;exitX=0.5;exitY=1.008;exitDx=0;exitDy=0;exitPerimeter=0;entryX=0.523;entryY=0.006;entryDx=0;entryDy=0;entryPerimeter=0;" edge="1" parent="WIyWlLk6GJQsqaUBKTNV-1" source="tXaySMaBJVbL5Y9LoDkF-60" target="tXaySMaBJVbL5Y9LoDkF-121">
          <mxGeometry width="50" height="50" relative="1" as="geometry">
            <mxPoint x="-520" y="458" as="sourcePoint" />
            <mxPoint x="-470" y="408" as="targetPoint" />
          </mxGeometry>
        </mxCell>
        <mxCell id="tXaySMaBJVbL5Y9LoDkF-125" value="" style="endArrow=classic;html=1;rounded=0;exitX=0.414;exitY=1.037;exitDx=0;exitDy=0;exitPerimeter=0;entryX=0.5;entryY=0;entryDx=0;entryDy=0;" edge="1" parent="WIyWlLk6GJQsqaUBKTNV-1" source="tXaySMaBJVbL5Y9LoDkF-83" target="tXaySMaBJVbL5Y9LoDkF-36">
          <mxGeometry width="50" height="50" relative="1" as="geometry">
            <mxPoint x="780" y="1050" as="sourcePoint" />
            <mxPoint x="830" y="1000" as="targetPoint" />
          </mxGeometry>
        </mxCell>
        <mxCell id="tXaySMaBJVbL5Y9LoDkF-126" value="" style="endArrow=classic;html=1;rounded=0;exitX=0.436;exitY=1.024;exitDx=0;exitDy=0;exitPerimeter=0;entryX=0.5;entryY=0;entryDx=0;entryDy=0;" edge="1" parent="WIyWlLk6GJQsqaUBKTNV-1" source="tXaySMaBJVbL5Y9LoDkF-83" target="tXaySMaBJVbL5Y9LoDkF-41">
          <mxGeometry width="50" height="50" relative="1" as="geometry">
            <mxPoint x="225" y="912" as="sourcePoint" />
            <mxPoint x="120" y="1000" as="targetPoint" />
          </mxGeometry>
        </mxCell>
        <mxCell id="tXaySMaBJVbL5Y9LoDkF-128" value="Extends" style="endArrow=block;endSize=16;endFill=0;html=1;rounded=0;entryX=0.543;entryY=1.031;entryDx=0;entryDy=0;entryPerimeter=0;exitX=0.5;exitY=0;exitDx=0;exitDy=0;" edge="1" parent="WIyWlLk6GJQsqaUBKTNV-1" source="tXaySMaBJVbL5Y9LoDkF-46" target="tXaySMaBJVbL5Y9LoDkF-45">
          <mxGeometry width="160" relative="1" as="geometry">
            <mxPoint x="730" y="590" as="sourcePoint" />
            <mxPoint x="890" y="590" as="targetPoint" />
          </mxGeometry>
        </mxCell>
        <mxCell id="tXaySMaBJVbL5Y9LoDkF-129" value="1" style="text;html=1;align=center;verticalAlign=middle;resizable=0;points=[];autosize=1;strokeColor=none;fillColor=none;" vertex="1" parent="WIyWlLk6GJQsqaUBKTNV-1">
          <mxGeometry x="1065" y="458" width="30" height="30" as="geometry" />
        </mxCell>
        <mxCell id="tXaySMaBJVbL5Y9LoDkF-130" value="1" style="text;html=1;align=center;verticalAlign=middle;resizable=0;points=[];autosize=1;strokeColor=none;fillColor=none;" vertex="1" parent="WIyWlLk6GJQsqaUBKTNV-1">
          <mxGeometry x="1065" y="398" width="30" height="30" as="geometry" />
        </mxCell>
        <mxCell id="tXaySMaBJVbL5Y9LoDkF-131" style="edgeStyle=orthogonalEdgeStyle;rounded=0;orthogonalLoop=1;jettySize=auto;html=1;entryX=1.011;entryY=0.333;entryDx=0;entryDy=0;entryPerimeter=0;" edge="1" parent="WIyWlLk6GJQsqaUBKTNV-1" source="tXaySMaBJVbL5Y9LoDkF-44" target="tXaySMaBJVbL5Y9LoDkF-79">
          <mxGeometry relative="1" as="geometry" />
        </mxCell>
        <mxCell id="tXaySMaBJVbL5Y9LoDkF-132" value="Uses" style="edgeLabel;html=1;align=center;verticalAlign=middle;resizable=0;points=[];" vertex="1" connectable="0" parent="tXaySMaBJVbL5Y9LoDkF-131">
          <mxGeometry x="-0.2464" y="-1" relative="1" as="geometry">
            <mxPoint as="offset" />
          </mxGeometry>
        </mxCell>
        <mxCell id="tXaySMaBJVbL5Y9LoDkF-133" value="Use" style="endArrow=open;endSize=12;dashed=1;html=1;rounded=0;exitX=0.001;exitY=-0.195;exitDx=0;exitDy=0;exitPerimeter=0;entryX=0.446;entryY=-0.028;entryDx=0;entryDy=0;entryPerimeter=0;edgeStyle=orthogonalEdgeStyle;" edge="1" parent="WIyWlLk6GJQsqaUBKTNV-1" source="tXaySMaBJVbL5Y9LoDkF-1" target="tXaySMaBJVbL5Y9LoDkF-57">
          <mxGeometry width="160" relative="1" as="geometry">
            <mxPoint x="-162.30000000000018" y="115.50400000000013" as="sourcePoint" />
            <mxPoint x="320" y="328" as="targetPoint" />
          </mxGeometry>
        </mxCell>
        <mxCell id="tXaySMaBJVbL5Y9LoDkF-134" value="Use" style="endArrow=open;endSize=12;dashed=1;html=1;rounded=0;exitX=0.466;exitY=1.035;exitDx=0;exitDy=0;exitPerimeter=0;entryX=0.5;entryY=0;entryDx=0;entryDy=0;edgeStyle=orthogonalEdgeStyle;" edge="1" parent="WIyWlLk6GJQsqaUBKTNV-1" source="tXaySMaBJVbL5Y9LoDkF-3" target="tXaySMaBJVbL5Y9LoDkF-76">
          <mxGeometry width="160" relative="1" as="geometry">
            <mxPoint x="251" y="291" as="sourcePoint" />
            <mxPoint x="-70" y="420" as="targetPoint" />
            <Array as="points">
              <mxPoint x="187" y="220" />
              <mxPoint x="605" y="220" />
            </Array>
          </mxGeometry>
        </mxCell>
        <mxCell id="tXaySMaBJVbL5Y9LoDkF-135" value="Use" style="endArrow=open;endSize=12;dashed=1;html=1;rounded=0;entryX=0.5;entryY=0;entryDx=0;entryDy=0;edgeStyle=orthogonalEdgeStyle;" edge="1" parent="WIyWlLk6GJQsqaUBKTNV-1" target="tXaySMaBJVbL5Y9LoDkF-80">
          <mxGeometry width="160" relative="1" as="geometry">
            <mxPoint x="180" y="190" as="sourcePoint" />
            <mxPoint x="468" y="450" as="targetPoint" />
            <Array as="points">
              <mxPoint x="150" y="190" />
              <mxPoint x="150" y="410" />
              <mxPoint x="15" y="410" />
            </Array>
          </mxGeometry>
        </mxCell>
        <mxCell id="tXaySMaBJVbL5Y9LoDkF-136" value="" style="endArrow=block;dashed=1;endFill=0;endSize=12;html=1;rounded=0;entryX=0.422;entryY=1.009;entryDx=0;entryDy=0;entryPerimeter=0;exitX=0.478;exitY=-0.014;exitDx=0;exitDy=0;exitPerimeter=0;" edge="1" parent="WIyWlLk6GJQsqaUBKTNV-1" source="tXaySMaBJVbL5Y9LoDkF-49" target="tXaySMaBJVbL5Y9LoDkF-64">
          <mxGeometry width="160" relative="1" as="geometry">
            <mxPoint x="-654" y="588" as="sourcePoint" />
            <mxPoint x="-494" y="588" as="targetPoint" />
          </mxGeometry>
        </mxCell>
        <mxCell id="tXaySMaBJVbL5Y9LoDkF-137" value="" style="endArrow=block;dashed=1;endFill=0;endSize=12;html=1;rounded=0;entryX=0.43;entryY=1.04;entryDx=0;entryDy=0;entryPerimeter=0;exitX=0.5;exitY=0;exitDx=0;exitDy=0;" edge="1" parent="WIyWlLk6GJQsqaUBKTNV-1" source="tXaySMaBJVbL5Y9LoDkF-53" target="tXaySMaBJVbL5Y9LoDkF-64">
          <mxGeometry width="160" relative="1" as="geometry">
            <mxPoint x="-589" y="647" as="sourcePoint" />
            <mxPoint x="-472" y="558" as="targetPoint" />
          </mxGeometry>
        </mxCell>
        <mxCell id="tXaySMaBJVbL5Y9LoDkF-138" value="" style="endArrow=block;dashed=1;endFill=0;endSize=12;html=1;rounded=0;entryX=0.485;entryY=0.991;entryDx=0;entryDy=0;entryPerimeter=0;exitX=0.5;exitY=0;exitDx=0;exitDy=0;" edge="1" parent="WIyWlLk6GJQsqaUBKTNV-1" source="tXaySMaBJVbL5Y9LoDkF-68" target="tXaySMaBJVbL5Y9LoDkF-67">
          <mxGeometry width="160" relative="1" as="geometry">
            <mxPoint x="650" y="630" as="sourcePoint" />
            <mxPoint x="810" y="630" as="targetPoint" />
          </mxGeometry>
        </mxCell>
        <mxCell id="tXaySMaBJVbL5Y9LoDkF-139" value="" style="endArrow=block;dashed=1;endFill=0;endSize=12;html=1;rounded=0;entryX=0.459;entryY=1.045;entryDx=0;entryDy=0;entryPerimeter=0;exitX=0.5;exitY=0;exitDx=0;exitDy=0;" edge="1" parent="WIyWlLk6GJQsqaUBKTNV-1" source="tXaySMaBJVbL5Y9LoDkF-72" target="tXaySMaBJVbL5Y9LoDkF-67">
          <mxGeometry width="160" relative="1" as="geometry">
            <mxPoint x="650" y="630" as="sourcePoint" />
            <mxPoint x="810" y="630" as="targetPoint" />
          </mxGeometry>
        </mxCell>
      </root>
    </mxGraphModel>
  </diagram>
</mxfile>
